<svg xmlns="http://www.w3.org/2000/svg" width="65.815" height="22" viewBox="0 0 65.815 22">
  <g id="Download_on_the_App_Store_Badge_RU_RGB_blk_100317" transform="translate(0 0)">
    <g id="Сгруппировать_7580" data-name="Сгруппировать 7580" transform="translate(0 0)">
      <g id="Сгруппировать_7578" data-name="Сгруппировать 7578">
        <path id="Контур_6466" data-name="Контур 6466" d="M60.574,0H4.642c-.168,0-.335,0-.505.007a7.268,7.268,0,0,0-1.1.1A3.666,3.666,0,0,0,1.989.45,3.541,3.541,0,0,0,1.1,1.1a3.442,3.442,0,0,0-.648.892A3.631,3.631,0,0,0,.107,3.037a7.146,7.146,0,0,0-.1,1.1C0,4.306,0,4.476,0,4.644V17.357c0,.171,0,.336.008.507a7.146,7.146,0,0,0,.1,1.1,3.623,3.623,0,0,0,.344,1.047A3.414,3.414,0,0,0,1.1,20.9a3.451,3.451,0,0,0,.89.648,3.685,3.685,0,0,0,1.045.347,7.4,7.4,0,0,0,1.1.1c.17,0,.337.006.505.006H61.17c.168,0,.339,0,.507-.006a7.3,7.3,0,0,0,1.1-.1,3.742,3.742,0,0,0,1.05-.347,3.453,3.453,0,0,0,.889-.648,3.518,3.518,0,0,0,.65-.888,3.633,3.633,0,0,0,.341-1.047,7.429,7.429,0,0,0,.1-1.1c0-.171,0-.336,0-.507,0-.2,0-.4,0-.6V5.245c0-.2,0-.4,0-.6,0-.169,0-.338,0-.506a7.427,7.427,0,0,0-.1-1.1,3.64,3.64,0,0,0-.34-1.047A3.556,3.556,0,0,0,63.826.45a3.722,3.722,0,0,0-1.05-.345,7.174,7.174,0,0,0-1.1-.1C61.509.005,61.338,0,61.17,0h-.6Z" transform="translate(0 0)" fill="#a6a6a6"/>
        <path id="Контур_6467" data-name="Контур 6467" d="M5.037,21.912c-.168,0-.331,0-.5-.006a6.978,6.978,0,0,1-1.028-.09,3.236,3.236,0,0,1-.911-.3,2.973,2.973,0,0,1-.768-.559,2.926,2.926,0,0,1-.561-.768,3.147,3.147,0,0,1-.3-.911,6.827,6.827,0,0,1-.092-1.031c0-.116-.008-.5-.008-.5V5.038s0-.38.008-.492a6.8,6.8,0,0,1,.091-1.03,3.166,3.166,0,0,1,.3-.914,2.955,2.955,0,0,1,.558-.769A3.061,3.061,0,0,1,2.6,1.271a3.2,3.2,0,0,1,.909-.3A6.922,6.922,0,0,1,4.541.882l.5-.007H61.56l.5.007a6.812,6.812,0,0,1,1.022.089,3.266,3.266,0,0,1,.919.3A3.077,3.077,0,0,1,65.332,2.6a3.17,3.17,0,0,1,.294.907,7.147,7.147,0,0,1,.1,1.038c0,.156,0,.323,0,.49,0,.206,0,.4,0,.6V17.149c0,.2,0,.395,0,.591,0,.179,0,.343,0,.511a7,7,0,0,1-.094,1.019,3.156,3.156,0,0,1-.3.918,3.014,3.014,0,0,1-.559.762,2.977,2.977,0,0,1-.77.562,3.224,3.224,0,0,1-.917.3,6.9,6.9,0,0,1-1.028.09c-.161,0-.33.006-.494.006H5.037Z" transform="translate(-0.393 -0.394)"/>
      </g>
      <g id="_Group_" data-name="&lt;Group&gt;" transform="translate(5.484 4.796)">
        <g id="_Group_2" data-name="&lt;Group&gt;">
          <g id="_Group_3" data-name="&lt;Group&gt;">
            <path id="_Path_" data-name="&lt;Path&gt;" d="M18.11,17.453a2.722,2.722,0,0,1,1.3-2.284,2.786,2.786,0,0,0-2.2-1.187c-.924-.1-1.819.553-2.29.553s-1.2-.543-1.985-.527a2.923,2.923,0,0,0-2.46,1.5c-1.064,1.842-.27,4.548.749,6.037.51.729,1.106,1.543,1.885,1.514.763-.032,1.048-.486,1.969-.486s1.18.486,1.975.468c.819-.013,1.334-.732,1.826-1.468a6.029,6.029,0,0,0,.835-1.7,2.63,2.63,0,0,1-1.606-2.42Z" transform="translate(-9.972 -11.084)" fill="#fff"/>
            <path id="_Path_2" data-name="&lt;Path&gt;" d="M20.576,10.64a2.68,2.68,0,0,0,.613-1.92,2.727,2.727,0,0,0-1.764.913,2.55,2.55,0,0,0-.629,1.849A2.254,2.254,0,0,0,20.576,10.64Z" transform="translate(-13.94 -8.72)" fill="#fff"/>
          </g>
        </g>
        <g id="Сгруппировать_7579" data-name="Сгруппировать 7579" transform="translate(13.451 5.033)">
          <path id="Контур_6468" data-name="Контур 6468" d="M38.759,23.062h-2.6l-.625,1.846h-1.1l2.466-6.83h1.146l2.466,6.83H39.383Zm-2.334-.852h2.064l-1.017-3h-.028Z" transform="translate(-34.427 -17.964)" fill="#fff"/>
          <path id="Контур_6469" data-name="Контур 6469" d="M51.322,23.889c0,1.547-.828,2.542-2.078,2.542a1.688,1.688,0,0,1-1.567-.871h-.024v2.466H46.631V21.4h.989v.828h.019a1.766,1.766,0,0,1,1.586-.88C50.489,21.347,51.322,22.346,51.322,23.889Zm-1.051,0c0-1.008-.521-1.671-1.316-1.671s-1.306.677-1.306,1.671.525,1.675,1.306,1.675,1.316-.658,1.316-1.675Z" transform="translate(-39.919 -19.435)" fill="#fff"/>
          <path id="Контур_6470" data-name="Контур 6470" d="M61.287,23.889c0,1.547-.828,2.542-2.078,2.542a1.688,1.688,0,0,1-1.567-.871h-.024v2.466H56.6V21.4h.989v.828H57.6a1.766,1.766,0,0,1,1.586-.88C60.454,21.347,61.287,22.346,61.287,23.889Zm-1.051,0c0-1.008-.521-1.671-1.316-1.671s-1.306.677-1.306,1.671.525,1.675,1.306,1.675,1.316-.658,1.316-1.675Z" transform="translate(-44.403 -19.435)" fill="#fff"/>
          <path id="Контур_6471" data-name="Контур 6471" d="M70.854,22.912c.076.677.734,1.122,1.633,1.122.862,0,1.481-.445,1.481-1.055,0-.53-.374-.848-1.259-1.065l-.885-.213c-1.254-.3-1.836-.889-1.836-1.841,0-1.178,1.027-1.988,2.485-1.988a2.184,2.184,0,0,1,2.466,1.988H73.907c-.062-.682-.625-1.093-1.449-1.093s-1.387.416-1.387,1.022c0,.483.36.767,1.24.984l.752.185c1.4.331,1.984.894,1.984,1.893,0,1.278-1.018,2.078-2.637,2.078-1.515,0-2.537-.781-2.6-2.017Z" transform="translate(-50.349 -17.871)" fill="#fff"/>
          <path id="Контур_6472" data-name="Контур 6472" d="M81.914,19.3v1.178h.947v.809h-.947v2.745c0,.426.19.625.606.625a3.193,3.193,0,0,0,.336-.024v.8a2.807,2.807,0,0,1-.568.047c-1.008,0-1.4-.379-1.4-1.344V21.288h-.724v-.809h.724V19.3Z" transform="translate(-55.008 -18.514)" fill="#fff"/>
          <path id="Контур_6473" data-name="Контур 6473" d="M86.065,23.882a2.369,2.369,0,1,1,4.724,0,2.369,2.369,0,1,1-4.724,0Zm3.682,0c0-1.075-.493-1.709-1.321-1.709s-1.32.639-1.32,1.709.492,1.709,1.32,1.709S89.747,24.961,89.747,23.882Z" transform="translate(-57.665 -19.428)" fill="#fff"/>
          <path id="Контур_6474" data-name="Контур 6474" d="M96.186,21.4h.975v.848h.024a1.188,1.188,0,0,1,1.2-.9,1.576,1.576,0,0,1,.35.038v.956a1.429,1.429,0,0,0-.459-.062,1.03,1.03,0,0,0-1.065,1.146v2.954H96.186Z" transform="translate(-62.219 -19.435)" fill="#fff"/>
          <path id="Контур_6475" data-name="Контур 6475" d="M105.709,24.909a2,2,0,0,1-2.144,1.524,2.267,2.267,0,0,1-2.348-2.528,2.3,2.3,0,0,1,2.3-2.575,2.192,2.192,0,0,1,2.244,2.456v.35h-3.517V24.2a1.3,1.3,0,0,0,1.34,1.41,1.127,1.127,0,0,0,1.15-.7Zm-3.455-1.486h2.489a1.2,1.2,0,0,0-1.221-1.264,1.261,1.261,0,0,0-1.268,1.264Z" transform="translate(-64.483 -19.428)" fill="#fff"/>
        </g>
      </g>
    </g>
    <g id="_Group_4" data-name="&lt;Group&gt;" transform="translate(19.442 4.714)">
      <g id="Сгруппировать_7581" data-name="Сгруппировать 7581">
        <path id="Контур_6476" data-name="Контур 6476" d="M36.113,10.046h.439a.551.551,0,0,0,.619-.523c0-.3-.228-.5-.614-.5a.585.585,0,0,0-.662.514h-.482a1.029,1.029,0,0,1,1.16-.96c.646,0,1.1.362,1.1.882a.762.762,0,0,1-.6.751v.039a.764.764,0,0,1,.73.794,1.243,1.243,0,0,1-2.458,0h.489c.03.314.318.516.743.516s.7-.227.7-.548-.262-.526-.719-.526h-.453Z" transform="translate(-35.349 -8.57)" fill="#fff"/>
        <path id="Контур_6477" data-name="Контур 6477" d="M40.829,11.932c0-.446.332-.7.921-.739l.671-.039V10.94c0-.262-.172-.409-.507-.409-.273,0-.461.1-.516.275h-.473c.05-.425.451-.7,1.012-.7.621,0,.971.309.971.832v1.692h-.471v-.348H42.4a.833.833,0,0,1-.744.389.748.748,0,0,1-.826-.741Zm1.592-.212v-.207l-.6.039c-.341.023-.5.139-.5.357s.193.353.459.353a.584.584,0,0,0,.641-.541Z" transform="translate(-37.815 -9.262)" fill="#fff"/>
        <path id="Контур_6478" data-name="Контур 6478" d="M46.568,10.606v2.065h-.489V10.195H47.71v.411Z" transform="translate(-40.177 -9.301)" fill="#fff"/>
        <path id="Контур_6479" data-name="Контур 6479" d="M52.537,11.4c0,.787-.4,1.28-1.023,1.28a.807.807,0,0,1-.762-.416h-.039v1.2h-.489v-3.3H50.7v.409h.037a.86.86,0,0,1,.778-.45C52.139,10.12,52.537,10.611,52.537,11.4Zm-.5,0c0-.523-.248-.839-.662-.839s-.669.323-.669.841.257.839.667.839.664-.316.664-.841Z" transform="translate(-42.043 -9.268)" fill="#fff"/>
        <path id="Контур_6480" data-name="Контур 6480" d="M55.407,13.558v-.421a1.155,1.155,0,0,0,.16.009.424.424,0,0,0,.448-.346l.037-.121-.9-2.486h.532l.621,1.967h.039l.619-1.967h.518l-.923,2.579c-.212.6-.446.8-.951.8C55.568,13.57,55.452,13.565,55.407,13.558Z" transform="translate(-44.261 -9.301)" fill="#fff"/>
        <path id="Контур_6481" data-name="Контур 6481" d="M60.081,11.923h.487c.048.218.252.332.539.332.325,0,.525-.143.525-.366,0-.239-.179-.353-.525-.353h-.371v-.38H61.1c.3,0,.446-.114.446-.321,0-.182-.146-.321-.446-.321-.273,0-.473.116-.5.312h-.471A.868.868,0,0,1,61.1,10.1c.589,0,.925.266.925.685a.509.509,0,0,1-.391.507v.039a.556.556,0,0,1,.484.557c0,.471-.4.782-1.012.782C60.566,12.671,60.126,12.423,60.081,11.923Z" transform="translate(-46.478 -9.256)" fill="#fff"/>
        <path id="Контур_6482" data-name="Контур 6482" d="M65.066,12.671V10.195h.484v1.7h.039l1.141-1.7h.484v2.477H66.73V10.959h-.036L65.55,12.671Z" transform="translate(-48.722 -9.301)" fill="#fff"/>
        <path id="Контур_6483" data-name="Контур 6483" d="M72.149,10.606h-.78v2.065H70.88V10.606H70.1v-.411h2.049Z" transform="translate(-50.987 -9.301)" fill="#fff"/>
        <path id="Контур_6484" data-name="Контур 6484" d="M76.79,11.964a1.006,1.006,0,0,1-1.074.716A1.125,1.125,0,0,1,74.572,11.4a1.142,1.142,0,0,1,1.142-1.294c.689,0,1.105.471,1.105,1.248v.171H75.07v.027a.654.654,0,0,0,.66.709.593.593,0,0,0,.589-.3Zm-1.719-.8h1.25a.6.6,0,0,0-.609-.642.633.633,0,0,0-.641.642Z" transform="translate(-52.995 -9.262)" fill="#fff"/>
        <path id="Контур_6485" data-name="Контур 6485" d="M82.38,10.195H83.5c.484,0,.769.245.769.63a.532.532,0,0,1-.418.523v.039a.565.565,0,0,1,.53.571c0,.432-.325.714-.868.714H82.38Zm.484.375v.641h.484c.3,0,.437-.114.437-.323,0-.193-.123-.318-.382-.318Zm0,1V12.3h.58c.289,0,.444-.128.444-.362s-.175-.364-.5-.364Z" transform="translate(-56.513 -9.301)" fill="#fff"/>
      </g>
    </g>
  </g>
</svg>
