<svg id="menu" xmlns="http://www.w3.org/2000/svg" width="27.407" height="20" viewBox="0 0 27.407 20">
  <path id="Контур_6486" data-name="Контур 6486" d="M26.265,125H1.142a1.168,1.168,0,0,1,0-2.336H26.265a1.168,1.168,0,0,1,0,2.336Zm0,0" transform="translate(0 -113.836)" fill="#333f50"/>
  <path id="Контур_6487" data-name="Контур 6487" d="M26.265,2.336H1.142A1.156,1.156,0,0,1,0,1.168,1.156,1.156,0,0,1,1.142,0H26.265a1.156,1.156,0,0,1,1.142,1.168A1.156,1.156,0,0,1,26.265,2.336Zm0,0" transform="translate(0 0)" fill="#333f50"/>
  <path id="Контур_6488" data-name="Контур 6488" d="M26.265,247.668H1.142a1.168,1.168,0,0,1,0-2.336H26.265a1.168,1.168,0,0,1,0,2.336Zm0,0" transform="translate(0 -227.668)" fill="#333f50"/>
</svg>
