<svg id="vk" xmlns="http://www.w3.org/2000/svg" width="24.652" height="24.652" viewBox="0 0 24.652 24.652">
  <g id="Сгруппировать_7577" data-name="Сгруппировать 7577" transform="translate(0 0)">
    <ellipse id="XMLID_11_" cx="12.326" cy="12.326" rx="12.326" ry="12.326" fill="#4d76a1"/>
  </g>
  <path id="Контур_6465" data-name="Контур 6465" d="M25.858,48.05h.967a.816.816,0,0,0,.441-.193.708.708,0,0,0,.133-.425s-.019-1.3.584-1.489,1.357,1.255,2.165,1.809a1.532,1.532,0,0,0,1.076.328l2.161-.03s1.131-.07.595-.959a7.223,7.223,0,0,0-1.607-1.859c-1.355-1.258-1.174-1.054.459-3.23.994-1.325,1.392-2.134,1.268-2.481-.118-.33-.85-.243-.85-.243l-2.434.015a.552.552,0,0,0-.314.055.682.682,0,0,0-.215.261,14.09,14.09,0,0,1-.9,1.9c-1.084,1.84-1.517,1.937-1.694,1.823-.412-.266-.309-1.07-.309-1.641,0-1.783.27-2.527-.527-2.719a4.155,4.155,0,0,0-1.136-.113,5.245,5.245,0,0,0-2.019.207c-.277.136-.49.438-.36.455a1.092,1.092,0,0,1,.718.361,2.348,2.348,0,0,1,.241,1.1s.143,2.1-.335,2.36c-.328.179-.778-.186-1.744-1.856a15.518,15.518,0,0,1-.869-1.8.723.723,0,0,0-.2-.271,1.008,1.008,0,0,0-.374-.151l-2.313.015s-.347.01-.475.161c-.113.134-.009.412-.009.412a26.316,26.316,0,0,0,3.86,6.37,5.553,5.553,0,0,0,4.014,1.829Z" transform="translate(-13.998 -30.318)" fill="#fff" fill-rule="evenodd"/>
</svg>
