<svg id="wallet" xmlns="http://www.w3.org/2000/svg" width="20.16" height="16.149" viewBox="0 0 20.16 16.149">
  <g id="Сгруппировать_5609" data-name="Сгруппировать 5609" transform="translate(18.772 10.116)">
    <g id="Сгруппировать_5608" data-name="Сгруппировать 5608" transform="translate(0 0)">
      <path id="Контур_5682" data-name="Контур 5682" d="M365.591,236.729a2.813,2.813,0,0,1-.591.54v2.3h.288a1.1,1.1,0,0,0,1.1-1.09V235.7Z" transform="translate(-365 -235.7)" fill="#d1d1d1"/>
    </g>
  </g>
  <g id="Сгруппировать_5611" data-name="Сгруппировать 5611" transform="translate(0 2.16)">
    <g id="Сгруппировать_5610" data-name="Сгруппировать 5610" transform="translate(0 0)">
      <path id="Контур_5683" data-name="Контур 5683" d="M14.5,85.063h2.967a1.266,1.266,0,0,0,.273-.031V82.09a1.092,1.092,0,0,0-1.1-1.09H1.1A1.1,1.1,0,0,0,0,82.09V93.883a1.113,1.113,0,0,0,1.1,1.106H16.648a1.105,1.105,0,0,0,1.1-1.106L17.738,90.9c-.087.01-.18.021-.273.026H14.5a2.929,2.929,0,0,1,0-5.858Z" transform="translate(0 -81)" fill="#d1d1d1"/>
    </g>
  </g>
  <g id="Сгруппировать_5613" data-name="Сгруппировать 5613" transform="translate(2.417 0)">
    <g id="Сгруппировать_5612" data-name="Сгруппировать 5612">
      <path id="Контур_5684" data-name="Контур 5684" d="M63.643,39H48.1A1.105,1.105,0,0,0,47,40.106v.026H61.231a2.12,2.12,0,0,1,2.124,2.119V44.4l1.389-1.79v-2.5A1.113,1.113,0,0,0,63.643,39Z" transform="translate(-47 -39)" fill="#d1d1d1"/>
    </g>
  </g>
  <g id="Сгруппировать_5615" data-name="Сгруппировать 5615" transform="translate(12.605 5.292)">
    <g id="Сгруппировать_5614" data-name="Сгруппировать 5614" transform="translate(0 0)">
      <path id="Контур_5685" data-name="Контур 5685" d="M252.65,141.9l-.8,1.029a2.392,2.392,0,0,1-.869.7,2.347,2.347,0,0,1-1.023.231H247a1.9,1.9,0,0,0,0,3.806h2.968a1.385,1.385,0,0,0,1.08-.535l1.61-2.088Zm-4.5,4.377h-1.234a.514.514,0,1,1,0-1.029h1.234a.514.514,0,0,1,0,1.029Z" transform="translate(-245.1 -141.9)" fill="#d1d1d1"/>
    </g>
  </g>
</svg>
